<mxfile host="app.diagrams.net" modified="2022-12-06T15:31:52.209Z" agent="5.0 (Windows NT 10.0; Win64; x64) AppleWebKit/537.36 (KHTML, like Gecko) Chrome/107.0.0.0 Safari/537.36 Edg/107.0.1418.62" version="20.6.0" etag="HmyyDsfUPqmYt6-BylKx" type="github">
  <diagram id="EhehCruOq5f1ZvlHeUAM" name="第 1 页">
    <mxGraphModel dx="1020" dy="869" grid="1" gridSize="10" guides="1" tooltips="1" connect="1" arrows="1" fold="1" page="1" pageScale="1" pageWidth="827" pageHeight="1169" math="0" shadow="0">
      <root>
        <mxCell id="0" />
        <mxCell id="1" parent="0" />
        <mxCell id="DB-8kBhAQyt42JU60BiL-1" value="饭卡历史信息数据" style="shape=partialRectangle;whiteSpace=wrap;html=1;left=0;right=0;fillColor=none;" vertex="1" parent="1">
          <mxGeometry x="370" y="350" width="120" height="60" as="geometry" />
        </mxCell>
        <mxCell id="DB-8kBhAQyt42JU60BiL-12" style="edgeStyle=orthogonalEdgeStyle;curved=1;rounded=0;orthogonalLoop=1;jettySize=auto;html=1;exitX=1;exitY=0.25;exitDx=0;exitDy=0;entryX=0;entryY=1;entryDx=0;entryDy=0;" edge="1" parent="1" source="DB-8kBhAQyt42JU60BiL-2" target="DB-8kBhAQyt42JU60BiL-6">
          <mxGeometry relative="1" as="geometry" />
        </mxCell>
        <mxCell id="DB-8kBhAQyt42JU60BiL-35" value="卡余额" style="edgeLabel;html=1;align=center;verticalAlign=middle;resizable=0;points=[];" vertex="1" connectable="0" parent="DB-8kBhAQyt42JU60BiL-12">
          <mxGeometry x="0.0781" y="10" relative="1" as="geometry">
            <mxPoint as="offset" />
          </mxGeometry>
        </mxCell>
        <mxCell id="DB-8kBhAQyt42JU60BiL-17" style="edgeStyle=orthogonalEdgeStyle;curved=1;rounded=0;orthogonalLoop=1;jettySize=auto;html=1;exitX=0;exitY=0.75;exitDx=0;exitDy=0;entryX=0.6;entryY=1.025;entryDx=0;entryDy=0;entryPerimeter=0;" edge="1" parent="1" source="DB-8kBhAQyt42JU60BiL-2" target="DB-8kBhAQyt42JU60BiL-5">
          <mxGeometry relative="1" as="geometry" />
        </mxCell>
        <mxCell id="DB-8kBhAQyt42JU60BiL-34" value="卡余额" style="edgeLabel;html=1;align=center;verticalAlign=middle;resizable=0;points=[];" vertex="1" connectable="0" parent="DB-8kBhAQyt42JU60BiL-17">
          <mxGeometry x="-0.2741" y="-14" relative="1" as="geometry">
            <mxPoint as="offset" />
          </mxGeometry>
        </mxCell>
        <mxCell id="DB-8kBhAQyt42JU60BiL-2" value="饭卡信息数据" style="shape=partialRectangle;whiteSpace=wrap;html=1;left=0;right=0;fillColor=none;" vertex="1" parent="1">
          <mxGeometry x="370" y="270" width="120" height="60" as="geometry" />
        </mxCell>
        <mxCell id="DB-8kBhAQyt42JU60BiL-9" style="edgeStyle=orthogonalEdgeStyle;curved=1;rounded=0;orthogonalLoop=1;jettySize=auto;html=1;exitX=0.5;exitY=1;exitDx=0;exitDy=0;" edge="1" parent="1" source="DB-8kBhAQyt42JU60BiL-3" target="DB-8kBhAQyt42JU60BiL-5">
          <mxGeometry relative="1" as="geometry" />
        </mxCell>
        <mxCell id="DB-8kBhAQyt42JU60BiL-26" value="充值金额" style="edgeLabel;html=1;align=center;verticalAlign=middle;resizable=0;points=[];" vertex="1" connectable="0" parent="DB-8kBhAQyt42JU60BiL-9">
          <mxGeometry x="-0.2" y="6" relative="1" as="geometry">
            <mxPoint as="offset" />
          </mxGeometry>
        </mxCell>
        <mxCell id="DB-8kBhAQyt42JU60BiL-3" value="学生/教职工" style="rounded=0;whiteSpace=wrap;html=1;" vertex="1" parent="1">
          <mxGeometry x="180" y="60" width="120" height="60" as="geometry" />
        </mxCell>
        <mxCell id="DB-8kBhAQyt42JU60BiL-10" style="edgeStyle=orthogonalEdgeStyle;curved=1;rounded=0;orthogonalLoop=1;jettySize=auto;html=1;exitX=0.5;exitY=1;exitDx=0;exitDy=0;entryX=0.613;entryY=0.025;entryDx=0;entryDy=0;entryPerimeter=0;" edge="1" parent="1" source="DB-8kBhAQyt42JU60BiL-4" target="DB-8kBhAQyt42JU60BiL-6">
          <mxGeometry relative="1" as="geometry" />
        </mxCell>
        <mxCell id="DB-8kBhAQyt42JU60BiL-27" value="消费金额" style="edgeLabel;html=1;align=center;verticalAlign=middle;resizable=0;points=[];" vertex="1" connectable="0" parent="DB-8kBhAQyt42JU60BiL-10">
          <mxGeometry x="-0.3118" y="1" relative="1" as="geometry">
            <mxPoint as="offset" />
          </mxGeometry>
        </mxCell>
        <mxCell id="DB-8kBhAQyt42JU60BiL-4" value="服务人员" style="rounded=0;whiteSpace=wrap;html=1;" vertex="1" parent="1">
          <mxGeometry x="610" y="60" width="120" height="60" as="geometry" />
        </mxCell>
        <mxCell id="DB-8kBhAQyt42JU60BiL-15" style="edgeStyle=orthogonalEdgeStyle;curved=1;rounded=0;orthogonalLoop=1;jettySize=auto;html=1;exitX=0;exitY=1;exitDx=0;exitDy=0;entryX=0;entryY=0.5;entryDx=0;entryDy=0;" edge="1" parent="1" source="DB-8kBhAQyt42JU60BiL-5" target="DB-8kBhAQyt42JU60BiL-1">
          <mxGeometry relative="1" as="geometry">
            <Array as="points">
              <mxPoint x="252" y="360" />
              <mxPoint x="345" y="360" />
              <mxPoint x="345" y="380" />
            </Array>
          </mxGeometry>
        </mxCell>
        <mxCell id="DB-8kBhAQyt42JU60BiL-32" value="卡充值记录" style="edgeLabel;html=1;align=center;verticalAlign=middle;resizable=0;points=[];" vertex="1" connectable="0" parent="DB-8kBhAQyt42JU60BiL-15">
          <mxGeometry x="0.0641" y="7" relative="1" as="geometry">
            <mxPoint as="offset" />
          </mxGeometry>
        </mxCell>
        <mxCell id="DB-8kBhAQyt42JU60BiL-16" style="edgeStyle=orthogonalEdgeStyle;curved=1;rounded=0;orthogonalLoop=1;jettySize=auto;html=1;exitX=1;exitY=1;exitDx=0;exitDy=0;entryX=0;entryY=0.25;entryDx=0;entryDy=0;" edge="1" parent="1" source="DB-8kBhAQyt42JU60BiL-5" target="DB-8kBhAQyt42JU60BiL-2">
          <mxGeometry relative="1" as="geometry" />
        </mxCell>
        <mxCell id="DB-8kBhAQyt42JU60BiL-33" value="充值金额" style="edgeLabel;html=1;align=center;verticalAlign=middle;resizable=0;points=[];" vertex="1" connectable="0" parent="DB-8kBhAQyt42JU60BiL-16">
          <mxGeometry x="-0.138" y="-3" relative="1" as="geometry">
            <mxPoint as="offset" />
          </mxGeometry>
        </mxCell>
        <mxCell id="DB-8kBhAQyt42JU60BiL-23" style="edgeStyle=orthogonalEdgeStyle;curved=1;rounded=0;orthogonalLoop=1;jettySize=auto;html=1;exitX=0;exitY=0;exitDx=0;exitDy=0;entryX=0;entryY=0.75;entryDx=0;entryDy=0;" edge="1" parent="1" source="DB-8kBhAQyt42JU60BiL-5" target="DB-8kBhAQyt42JU60BiL-7">
          <mxGeometry relative="1" as="geometry">
            <Array as="points">
              <mxPoint x="170" y="192" />
              <mxPoint x="170" y="370" />
              <mxPoint x="200" y="370" />
              <mxPoint x="200" y="525" />
            </Array>
          </mxGeometry>
        </mxCell>
        <mxCell id="DB-8kBhAQyt42JU60BiL-25" value="卡信息" style="edgeLabel;html=1;align=center;verticalAlign=middle;resizable=0;points=[];" vertex="1" connectable="0" parent="DB-8kBhAQyt42JU60BiL-23">
          <mxGeometry x="-0.3355" y="-2" relative="1" as="geometry">
            <mxPoint as="offset" />
          </mxGeometry>
        </mxCell>
        <mxCell id="DB-8kBhAQyt42JU60BiL-5" value="5.1&lt;br&gt;充值" style="ellipse;whiteSpace=wrap;html=1;aspect=fixed;" vertex="1" parent="1">
          <mxGeometry x="240" y="180" width="80" height="80" as="geometry" />
        </mxCell>
        <mxCell id="DB-8kBhAQyt42JU60BiL-11" style="edgeStyle=orthogonalEdgeStyle;curved=1;rounded=0;orthogonalLoop=1;jettySize=auto;html=1;exitX=0.5;exitY=1;exitDx=0;exitDy=0;entryX=1;entryY=0.5;entryDx=0;entryDy=0;" edge="1" parent="1" source="DB-8kBhAQyt42JU60BiL-6" target="DB-8kBhAQyt42JU60BiL-2">
          <mxGeometry relative="1" as="geometry" />
        </mxCell>
        <mxCell id="DB-8kBhAQyt42JU60BiL-36" value="消费金额" style="edgeLabel;html=1;align=center;verticalAlign=middle;resizable=0;points=[];" vertex="1" connectable="0" parent="DB-8kBhAQyt42JU60BiL-11">
          <mxGeometry x="-0.0444" y="-5" relative="1" as="geometry">
            <mxPoint as="offset" />
          </mxGeometry>
        </mxCell>
        <mxCell id="DB-8kBhAQyt42JU60BiL-14" style="edgeStyle=orthogonalEdgeStyle;curved=1;rounded=0;orthogonalLoop=1;jettySize=auto;html=1;exitX=1;exitY=1;exitDx=0;exitDy=0;entryX=1;entryY=0.5;entryDx=0;entryDy=0;" edge="1" parent="1" source="DB-8kBhAQyt42JU60BiL-6" target="DB-8kBhAQyt42JU60BiL-1">
          <mxGeometry relative="1" as="geometry">
            <Array as="points">
              <mxPoint x="630" y="238" />
              <mxPoint x="630" y="380" />
            </Array>
          </mxGeometry>
        </mxCell>
        <mxCell id="DB-8kBhAQyt42JU60BiL-31" value="卡消费记录" style="edgeLabel;html=1;align=center;verticalAlign=middle;resizable=0;points=[];" vertex="1" connectable="0" parent="DB-8kBhAQyt42JU60BiL-14">
          <mxGeometry x="-0.1801" y="-10" relative="1" as="geometry">
            <mxPoint as="offset" />
          </mxGeometry>
        </mxCell>
        <mxCell id="DB-8kBhAQyt42JU60BiL-20" style="edgeStyle=orthogonalEdgeStyle;curved=1;rounded=0;orthogonalLoop=1;jettySize=auto;html=1;exitX=1;exitY=0.5;exitDx=0;exitDy=0;entryX=1;entryY=0.5;entryDx=0;entryDy=0;" edge="1" parent="1" source="DB-8kBhAQyt42JU60BiL-6" target="DB-8kBhAQyt42JU60BiL-7">
          <mxGeometry relative="1" as="geometry" />
        </mxCell>
        <mxCell id="DB-8kBhAQyt42JU60BiL-30" value="卡信息" style="edgeLabel;html=1;align=center;verticalAlign=middle;resizable=0;points=[];" vertex="1" connectable="0" parent="DB-8kBhAQyt42JU60BiL-20">
          <mxGeometry x="-0.289" y="3" relative="1" as="geometry">
            <mxPoint as="offset" />
          </mxGeometry>
        </mxCell>
        <mxCell id="DB-8kBhAQyt42JU60BiL-6" value="5.2&lt;br&gt;消费" style="ellipse;whiteSpace=wrap;html=1;aspect=fixed;" vertex="1" parent="1">
          <mxGeometry x="580" y="170" width="80" height="80" as="geometry" />
        </mxCell>
        <mxCell id="DB-8kBhAQyt42JU60BiL-18" style="edgeStyle=orthogonalEdgeStyle;curved=1;rounded=0;orthogonalLoop=1;jettySize=auto;html=1;exitX=0;exitY=0.25;exitDx=0;exitDy=0;entryX=0;entryY=0.5;entryDx=0;entryDy=0;" edge="1" parent="1" source="DB-8kBhAQyt42JU60BiL-7" target="DB-8kBhAQyt42JU60BiL-5">
          <mxGeometry relative="1" as="geometry" />
        </mxCell>
        <mxCell id="DB-8kBhAQyt42JU60BiL-28" value="卡余额" style="edgeLabel;html=1;align=center;verticalAlign=middle;resizable=0;points=[];" vertex="1" connectable="0" parent="DB-8kBhAQyt42JU60BiL-18">
          <mxGeometry x="0.1096" y="-4" relative="1" as="geometry">
            <mxPoint as="offset" />
          </mxGeometry>
        </mxCell>
        <mxCell id="DB-8kBhAQyt42JU60BiL-21" style="edgeStyle=orthogonalEdgeStyle;curved=1;rounded=0;orthogonalLoop=1;jettySize=auto;html=1;exitX=1;exitY=0.75;exitDx=0;exitDy=0;entryX=1;entryY=0;entryDx=0;entryDy=0;" edge="1" parent="1" source="DB-8kBhAQyt42JU60BiL-7" target="DB-8kBhAQyt42JU60BiL-6">
          <mxGeometry relative="1" as="geometry">
            <Array as="points">
              <mxPoint x="780" y="525" />
              <mxPoint x="780" y="182" />
            </Array>
          </mxGeometry>
        </mxCell>
        <mxCell id="DB-8kBhAQyt42JU60BiL-29" value="卡余额" style="edgeLabel;html=1;align=center;verticalAlign=middle;resizable=0;points=[];" vertex="1" connectable="0" parent="DB-8kBhAQyt42JU60BiL-21">
          <mxGeometry x="0.0141" y="26" relative="1" as="geometry">
            <mxPoint as="offset" />
          </mxGeometry>
        </mxCell>
        <mxCell id="DB-8kBhAQyt42JU60BiL-7" value="充值、刷卡设备" style="rounded=0;whiteSpace=wrap;html=1;" vertex="1" parent="1">
          <mxGeometry x="354" y="480" width="120" height="60" as="geometry" />
        </mxCell>
      </root>
    </mxGraphModel>
  </diagram>
</mxfile>
